<?xml version="1.0" ?><!DOCTYPE svg  PUBLIC '-//W3C//DTD SVG 1.0//EN'  'http://www.w3.org/TR/2001/REC-SVG-20010904/DTD/svg10.dtd'><svg enable-background="new 0 0 100 100" height="100px" id="Layer_1" version="1.0" viewBox="0 0 100 100" width="100px" xml:space="preserve" xmlns="http://www.w3.org/2000/svg" xmlns:xlink="http://www.w3.org/1999/xlink"><path d="  M75,10H25c-8.251,0-15,6.749-15,15v49.999C10,83.249,16.749,90,25,90h50c8.25,0,15-6.751,15-15.001V25C90,16.749,83.25,10,75,10z   M50,69.999c-11.045,0-20.001-8.954-20.001-20c0-11.046,8.956-20.001,20.001-20.001c11.046,0,20.001,8.955,20.001,20.001  C70.001,61.045,61.046,69.999,50,69.999z M71.875,32.499c-2.415,0-4.375-1.959-4.375-4.374c0-2.418,1.96-4.375,4.375-4.375  s4.375,1.957,4.375,4.375C76.25,30.54,74.29,32.499,71.875,32.499z" fill="none" stroke="#000000" stroke-linecap="round" stroke-linejoin="round" stroke-miterlimit="10" stroke-width="2"/><circle cx="50" cy="50" fill="none" r="20.001" stroke="#000000" stroke-linecap="round" stroke-linejoin="round" stroke-miterlimit="10" stroke-width="2"/><circle cx="71.875" cy="28.125" fill="none" r="4.375" stroke="#000000" stroke-linecap="round" stroke-linejoin="round" stroke-miterlimit="10" stroke-width="2"/></svg>